{"accessors" : [{"bufferView" : 0, "byteOffset" : 0, "componentType" : 5123, "count" : 924, "type" : "SCALAR", "max" : [331], "min" : [0]}, {"bufferView" : 1, "byteOffset" : 0, "componentType" : 5126, "count" : 332, "type" : "VEC3", "max" : [103.02735900878906, 6, 243], "min" : [99.58462524414062, -6.199999809265137, 235], "name" : "POSITION"}, {"bufferView" : 1, "byteOffset" : 12, "componentType" : 5126, "count" : 332, "type" : "VEC3", "max" : [1.0000044107437134, 1.0000044107437134, 1.0000044107437134], "min" : [-1.0000044107437134, -1.0000044107437134, -1.0000044107437134], "name" : "NORMAL"}, {"bufferView" : 1, "byteOffset" : 24, "componentType" : 5126, "count" : 332, "type" : "VEC2", "max" : [12.199999809265137, 7.1428351402282715], "min" : [-12.199999809265137, -11.199999809265137], "name" : "TEXCOORD_0"}, {"bufferView" : 0, "byteOffset" : 1848, "componentType" : 5123, "count" : 108, "type" : "SCALAR", "max" : [47], "min" : [0]}, {"bufferView" : 2, "byteOffset" : 0, "componentType" : 5126, "count" : 48, "type" : "VEC3", "max" : [99.5999984741211, 90, 340], "min" : [93.5999984741211, -90, 235], "name" : "POSITION"}, {"bufferView" : 2, "byteOffset" : 12, "componentType" : 5126, "count" : 48, "type" : "VEC3", "max" : [1.0000044107437134, 1.0000044107437134, 1.0000044107437134], "min" : [-1.0000044107437134, -1.0000044107437134, -1.0000044107437134], "name" : "NORMAL"}, {"bufferView" : 2, "byteOffset" : 24, "componentType" : 5126, "count" : 48, "type" : "VEC2", "max" : [105, 91], "min" : [-52.5, -89], "name" : "TEXCOORD_0"}, {"bufferView" : 0, "byteOffset" : 2064, "componentType" : 5123, "count" : 6480, "type" : "SCALAR", "max" : [1158], "min" : [0]}, {"bufferView" : 3, "byteOffset" : 0, "componentType" : 5126, "count" : 1159, "type" : "VEC3", "max" : [152.52879333496094, 25.205482482910156, 243.13247680664062], "min" : [102.11896514892578, -25.20435333251953, 240.46865844726562], "name" : "POSITION"}, {"bufferView" : 3, "byteOffset" : 12, "componentType" : 5126, "count" : 1159, "type" : "VEC3", "max" : [1.0000044107437134, 1.0000044107437134, 0.9848120808601379], "min" : [-1.0000044107437134, -1.0000044107437134, -0.9848120808601379], "name" : "NORMAL"}, {"bufferView" : 3, "byteOffset" : 24, "componentType" : 5126, "count" : 1159, "type" : "VEC2", "max" : [4.248875141143799, 80.18358612060547], "min" : [-4.248875141143799, -78.18358612060547], "name" : "TEXCOORD_0"}, {"bufferView" : 0, "byteOffset" : 15024, "componentType" : 5123, "count" : 732, "type" : "SCALAR", "max" : [275], "min" : [0]}, {"bufferView" : 4, "byteOffset" : 0, "componentType" : 5126, "count" : 276, "type" : "VEC3", "max" : [750, 400, 0], "min" : [-750, -400, -5], "name" : "POSITION"}, {"bufferView" : 4, "byteOffset" : 12, "componentType" : 5126, "count" : 276, "type" : "VEC3", "max" : [1.0000044107437134, 1.0000044107437134, 1.0000044107437134], "min" : [-1.0000044107437134, -1.0000044107437134, -1.0000044107437134], "name" : "NORMAL"}, {"bufferView" : 4, "byteOffset" : 24, "componentType" : 5126, "count" : 276, "type" : "VEC2", "max" : [1500, 401], "min" : [-750, -399], "name" : "TEXCOORD_0"}, {"bufferView" : 0, "byteOffset" : 16488, "componentType" : 5123, "count" : 36, "type" : "SCALAR", "max" : [23], "min" : [0]}, {"bufferView" : 5, "byteOffset" : 0, "componentType" : 5126, "count" : 24, "type" : "VEC3", "max" : [750, 555, 0], "min" : [-905, 405, -5], "name" : "POSITION"}, {"bufferView" : 5, "byteOffset" : 12, "componentType" : 5126, "count" : 24, "type" : "VEC3", "max" : [1.0000044107437134, 1.0000044107437134, 1.0000044107437134], "min" : [-1.0000044107437134, -1.0000044107437134, -1.0000044107437134], "name" : "NORMAL"}, {"bufferView" : 5, "byteOffset" : 24, "componentType" : 5126, "count" : 24, "type" : "VEC2", "max" : [1655, 76], "min" : [-827.5, -74], "name" : "TEXCOORD_0"}, {"bufferView" : 0, "byteOffset" : 16560, "componentType" : 5123, "count" : 36, "type" : "SCALAR", "max" : [23], "min" : [0]}, {"bufferView" : 6, "byteOffset" : 0, "componentType" : 5126, "count" : 24, "type" : "VEC3", "max" : [-905, 227.5, 0], "min" : [-1005, 127.5, -5], "name" : "POSITION"}, {"bufferView" : 6, "byteOffset" : 12, "componentType" : 5126, "count" : 24, "type" : "VEC3", "max" : [1.0000044107437134, 1.0000044107437134, 1.0000044107437134], "min" : [-1.0000044107437134, -1.0000044107437134, -1.0000044107437134], "name" : "NORMAL"}, {"bufferView" : 6, "byteOffset" : 24, "componentType" : 5126, "count" : 24, "type" : "VEC2", "max" : [100, 51], "min" : [-50, -49], "name" : "TEXCOORD_0"}, {"bufferView" : 0, "byteOffset" : 16632, "componentType" : 5123, "count" : 36, "type" : "SCALAR", "max" : [23], "min" : [0]}, {"bufferView" : 7, "byteOffset" : 0, "componentType" : 5126, "count" : 24, "type" : "VEC3", "max" : [-755, 405, 0], "min" : [-905, 127.5, -5], "name" : "POSITION"}, {"bufferView" : 7, "byteOffset" : 12, "componentType" : 5126, "count" : 24, "type" : "VEC3", "max" : [1.0000044107437134, 1.0000044107437134, 1.0000044107437134], "min" : [-1.0000044107437134, -1.0000044107437134, -1.0000044107437134], "name" : "NORMAL"}, {"bufferView" : 7, "byteOffset" : 24, "componentType" : 5126, "count" : 24, "type" : "VEC2", "max" : [277.5, 139.75], "min" : [-75, -137.75], "name" : "TEXCOORD_0"}, {"bufferView" : 0, "byteOffset" : 16704, "componentType" : 5123, "count" : 36, "type" : "SCALAR", "max" : [23], "min" : [0]}, {"bufferView" : 8, "byteOffset" : 0, "componentType" : 5126, "count" : 24, "type" : "VEC3", "max" : [905, -405, 0], "min" : [-750, -555, -5], "name" : "POSITION"}, {"bufferView" : 8, "byteOffset" : 12, "componentType" : 5126, "count" : 24, "type" : "VEC3", "max" : [1.0000044107437134, 1.0000044107437134, 1.0000044107437134], "min" : [-1.0000044107437134, -1.0000044107437134, -1.0000044107437134], "name" : "NORMAL"}, {"bufferView" : 8, "byteOffset" : 24, "componentType" : 5126, "count" : 24, "type" : "VEC2", "max" : [1655, 76], "min" : [-827.5, -74], "name" : "TEXCOORD_0"}, {"bufferView" : 0, "byteOffset" : 16776, "componentType" : 5123, "count" : 36, "type" : "SCALAR", "max" : [23], "min" : [0]}, {"bufferView" : 9, "byteOffset" : 0, "componentType" : 5126, "count" : 24, "type" : "VEC3", "max" : [1005, -127.5, 0], "min" : [905, -227.5, -5], "name" : "POSITION"}, {"bufferView" : 9, "byteOffset" : 12, "componentType" : 5126, "count" : 24, "type" : "VEC3", "max" : [1.0000044107437134, 1.0000044107437134, 1.0000044107437134], "min" : [-1.0000044107437134, -1.0000044107437134, -1.0000044107437134], "name" : "NORMAL"}, {"bufferView" : 9, "byteOffset" : 24, "componentType" : 5126, "count" : 24, "type" : "VEC2", "max" : [100, 51], "min" : [-50, -49], "name" : "TEXCOORD_0"}, {"bufferView" : 0, "byteOffset" : 16848, "componentType" : 5123, "count" : 36, "type" : "SCALAR", "max" : [23], "min" : [0]}, {"bufferView" : 10, "byteOffset" : 0, "componentType" : 5126, "count" : 24, "type" : "VEC3", "max" : [905, -127.5, 0], "min" : [755, -405, -5], "name" : "POSITION"}, {"bufferView" : 10, "byteOffset" : 12, "componentType" : 5126, "count" : 24, "type" : "VEC3", "max" : [1.0000044107437134, 1.0000044107437134, 1.0000044107437134], "min" : [-1.0000044107437134, -1.0000044107437134, -1.0000044107437134], "name" : "NORMAL"}, {"bufferView" : 10, "byteOffset" : 24, "componentType" : 5126, "count" : 24, "type" : "VEC2", "max" : [277.5, 139.75], "min" : [-75, -137.75], "name" : "TEXCOORD_0"}, {"bufferView" : 0, "byteOffset" : 16920, "componentType" : 5123, "count" : 96, "type" : "SCALAR", "max" : [47], "min" : [0]}, {"bufferView" : 11, "byteOffset" : 0, "componentType" : 5126, "count" : 48, "type" : "VEC3", "max" : [755, 405, 10], "min" : [-755, -405, 0], "name" : "POSITION"}, {"bufferView" : 11, "byteOffset" : 12, "componentType" : 5126, "count" : 48, "type" : "VEC3", "max" : [1.0000044107437134, 1.0000044107437134, 1.0000044107437134], "min" : [-1.0000044107437134, -1.0000044107437134, -1.0000044107437134], "name" : "NORMAL"}, {"bufferView" : 11, "byteOffset" : 24, "componentType" : 5126, "count" : 48, "type" : "VEC2", "max" : [1510, 406], "min" : [-755, -404], "name" : "TEXCOORD_0"}, {"bufferView" : 0, "byteOffset" : 17112, "componentType" : 5123, "count" : 588, "type" : "SCALAR", "max" : [201], "min" : [0]}, {"bufferView" : 12, "byteOffset" : 0, "componentType" : 5126, "count" : 202, "type" : "VEC3", "max" : [-160, 39.92107009887695, 120], "min" : [-240, -39.92107009887695, 0], "name" : "POSITION"}, {"bufferView" : 12, "byteOffset" : 12, "componentType" : 5126, "count" : 202, "type" : "VEC3", "max" : [1.0000044107437134, 0.9980311393737793, 1.0000044107437134], "min" : [-1.0000044107437134, -0.9980311393737793, -1.0000044107437134], "name" : "NORMAL"}, {"bufferView" : 12, "byteOffset" : 24, "componentType" : 5126, "count" : 202, "type" : "VEC2", "max" : [60, 126.66370391845703], "min" : [-60, -124.66370391845703], "name" : "TEXCOORD_0"}, {"bufferView" : 0, "byteOffset" : 18288, "componentType" : 5123, "count" : 540, "type" : "SCALAR", "max" : [185], "min" : [0]}, {"bufferView" : 13, "byteOffset" : 0, "componentType" : 5126, "count" : 186, "type" : "VEC3", "max" : [-140, 59.86012649536133, 240], "min" : [-260, -59.86012649536133, 0], "name" : "POSITION"}, {"bufferView" : 13, "byteOffset" : 12, "componentType" : 5126, "count" : 186, "type" : "VEC3", "max" : [1.0000044107437134, 0.9976731538772583, 1.0000044107437134], "min" : [-1.0000044107437134, -0.9976731538772583, -1.0000044107437134], "name" : "NORMAL"}, {"bufferView" : 13, "byteOffset" : 24, "componentType" : 5126, "count" : 186, "type" : "VEC2", "max" : [120, 189.4955596923828], "min" : [-120, -187.4955596923828], "name" : "TEXCOORD_0"}], "asset" : {"generator" : "Aspose.3D 24.10.0", "version" : "2.0"}, "buffers" : [{"uri" : "buffer.bin", "byteLength" : 96064}], "bufferViews" : [{"buffer" : 0, "byteOffset" : 0, "byteLength" : 19368, "target" : 34963}, {"buffer" : 0, "byteOffset" : 19372, "byteLength" : 10624, "byteStride" : 32, "target" : 34962}, {"buffer" : 0, "byteOffset" : 30000, "byteLength" : 1536, "byteStride" : 32, "target" : 34962}, {"buffer" : 0, "byteOffset" : 31540, "byteLength" : 37088, "byteStride" : 32, "target" : 34962}, {"buffer" : 0, "byteOffset" : 68632, "byteLength" : 8832, "byteStride" : 32, "target" : 34962}, {"buffer" : 0, "byteOffset" : 77468, "byteLength" : 768, "byteStride" : 32, "target" : 34962}, {"buffer" : 0, "byteOffset" : 78240, "byteLength" : 768, "byteStride" : 32, "target" : 34962}, {"buffer" : 0, "byteOffset" : 79012, "byteLength" : 768, "byteStride" : 32, "target" : 34962}, {"buffer" : 0, "byteOffset" : 79784, "byteLength" : 768, "byteStride" : 32, "target" : 34962}, {"buffer" : 0, "byteOffset" : 80556, "byteLength" : 768, "byteStride" : 32, "target" : 34962}, {"buffer" : 0, "byteOffset" : 81328, "byteLength" : 768, "byteStride" : 32, "target" : 34962}, {"buffer" : 0, "byteOffset" : 82100, "byteLength" : 1536, "byteStride" : 32, "target" : 34962}, {"buffer" : 0, "byteOffset" : 83640, "byteLength" : 6464, "byteStride" : 32, "target" : 34962}, {"buffer" : 0, "byteOffset" : 90108, "byteLength" : 5952, "byteStride" : 32, "target" : 34962}], "cameras" : [{"orthographic" : {"xmag" : 1, "ymag" : 1, "zfar" : 4000, "znear" : 10}, "type" : "orthographic", "name" : "???"}], "meshes" : [{"primitives" : [{"attributes" : {"POSITION" : 1, "NORMAL" : 2, "TEXCOORD_0" : 3}, "indices" : 0, "mode" : 4}], "name" : "?????????9"}, {"primitives" : [{"attributes" : {"POSITION" : 5, "NORMAL" : 6, "TEXCOORD_0" : 7}, "indices" : 4, "mode" : 4}], "name" : "?????????11"}, {"primitives" : [{"attributes" : {"POSITION" : 9, "NORMAL" : 10, "TEXCOORD_0" : 11}, "indices" : 8, "mode" : 4}], "name" : "?????????12"}, {"primitives" : [{"attributes" : {"POSITION" : 13, "NORMAL" : 14, "TEXCOORD_0" : 15}, "indices" : 12, "mode" : 4}], "name" : "?????????1"}, {"primitives" : [{"attributes" : {"POSITION" : 17, "NORMAL" : 18, "TEXCOORD_0" : 19}, "indices" : 16, "mode" : 4}], "name" : "?????????2"}, {"primitives" : [{"attributes" : {"POSITION" : 21, "NORMAL" : 22, "TEXCOORD_0" : 23}, "indices" : 20, "mode" : 4}], "name" : "?????????3"}, {"primitives" : [{"attributes" : {"POSITION" : 25, "NORMAL" : 26, "TEXCOORD_0" : 27}, "indices" : 24, "mode" : 4}], "name" : "?????????4"}, {"primitives" : [{"attributes" : {"POSITION" : 29, "NORMAL" : 30, "TEXCOORD_0" : 31}, "indices" : 28, "mode" : 4}], "name" : "?????????5"}, {"primitives" : [{"attributes" : {"POSITION" : 33, "NORMAL" : 34, "TEXCOORD_0" : 35}, "indices" : 32, "mode" : 4}], "name" : "?????????6"}, {"primitives" : [{"attributes" : {"POSITION" : 37, "NORMAL" : 38, "TEXCOORD_0" : 39}, "indices" : 36, "mode" : 4}], "name" : "?????????7"}, {"primitives" : [{"attributes" : {"POSITION" : 41, "NORMAL" : 42, "TEXCOORD_0" : 43}, "indices" : 40, "mode" : 4}], "name" : "?????????8"}, {"primitives" : [{"attributes" : {"POSITION" : 45, "NORMAL" : 46, "TEXCOORD_0" : 47}, "indices" : 44, "mode" : 4}], "name" : "?????????10"}, {"primitives" : [{"attributes" : {"POSITION" : 49, "NORMAL" : 50, "TEXCOORD_0" : 51}, "indices" : 48, "mode" : 4}], "name" : "?????????11"}], "nodes" : [{"camera" : 0, "name" : "robocon_arena_2025_v3_v3"}, {"matrix" : [10, 0, 0, 0, 0, 10, 0, 0, 0, 0, 10, 0, 0, 0, 0, 1], "mesh" : 0, "name" : "?????????9"}, {"children" : [1], "name" : "MeshPrimDef"}, {"matrix" : [10, 0, 0, 0, 0, 10, 0, 0, 0, 0, 10, 0, 0, 0, 0, 1], "mesh" : 1, "name" : "?????????11"}, {"children" : [3], "name" : "MeshPrimDef_1"}, {"matrix" : [10, 0, 0, 0, 0, 10, 0, 0, 0, 0, 10, 0, 0, 0, 0, 1], "mesh" : 2, "name" : "?????????12"}, {"children" : [5], "name" : "MeshPrimDef_2"}, {"matrix" : [10, 0, 0, 0, 0, 10, 0, 0, 0, 0, 10, 0, 0, 0, 0, 1], "mesh" : 3, "name" : "?????????1"}, {"children" : [7], "name" : "MeshPrimDef_3"}, {"matrix" : [10, 0, 0, 0, 0, 10, 0, 0, 0, 0, 10, 0, 0, 0, 0, 1], "mesh" : 4, "name" : "?????????2"}, {"children" : [9], "name" : "MeshPrimDef_4"}, {"matrix" : [10, 0, 0, 0, 0, 10, 0, 0, 0, 0, 10, 0, 0, 0, 0, 1], "mesh" : 5, "name" : "?????????3"}, {"children" : [11], "name" : "MeshPrimDef_5"}, {"matrix" : [10, 0, 0, 0, 0, 10, 0, 0, 0, 0, 10, 0, 0, 0, 0, 1], "mesh" : 6, "name" : "?????????4"}, {"children" : [13], "name" : "MeshPrimDef_6"}, {"matrix" : [10, 0, 0, 0, 0, 10, 0, 0, 0, 0, 10, 0, 0, 0, 0, 1], "mesh" : 7, "name" : "?????????5"}, {"children" : [15], "name" : "MeshPrimDef_7"}, {"matrix" : [10, 0, 0, 0, 0, 10, 0, 0, 0, 0, 10, 0, 0, 0, 0, 1], "mesh" : 8, "name" : "?????????6"}, {"children" : [17], "name" : "MeshPrimDef_8"}, {"matrix" : [10, 0, 0, 0, 0, 10, 0, 0, 0, 0, 10, 0, 0, 0, 0, 1], "mesh" : 9, "name" : "?????????7"}, {"children" : [19], "name" : "MeshPrimDef_9"}, {"matrix" : [10, 0, 0, 0, 0, 10, 0, 0, 0, 0, 10, 0, 0, 0, 0, 1], "mesh" : 10, "name" : "?????????8"}, {"children" : [21], "name" : "MeshPrimDef_10"}, {"matrix" : [10, 0, 0, 0, 0, 10, 0, 0, 0, 0, 10, 0, 0, 0, 0, 1], "mesh" : 11, "name" : "?????????10"}, {"children" : [23], "name" : "MeshPrimDef_11"}, {"matrix" : [10, 0, 0, 0, 0, 10, 0, 0, 0, 0, 10, 0, 0, 0, 0, 1], "mesh" : 12, "name" : "?????????11"}, {"children" : [25], "name" : "MeshPrimDef_12"}], "scene" : 0, "scenes" : [{"nodes" : [0, 2, 4, 6, 8, 10, 12, 14, 16, 18, 20, 22, 24, 26]}]}