{"accessors" : [{"bufferView" : 0, "byteOffset" : 0, "componentType" : 5123, "count" : 2346, "type" : "SCALAR", "max" : [809], "min" : [0]}, {"bufferView" : 1, "byteOffset" : 0, "componentType" : 5126, "count" : 810, "type" : "VEC3", "max" : [13.036287307739258, -1.6668750047683716, 0.10000000149011612], "min" : [6.244166851043701, -13.094508171081543, 0.10000000149011612], "name" : "POSITION"}, {"bufferView" : 1, "byteOffset" : 12, "componentType" : 5126, "count" : 810, "type" : "VEC3", "max" : [0, 0, 1.0000044107437134], "min" : [0, 0, 1.0000044107437134], "name" : "NORMAL"}, {"bufferView" : 1, "byteOffset" : 24, "componentType" : 5126, "count" : 810, "type" : "VEC2", "max" : [6.235172271728516, 7.492490768432617], "min" : [-0.5569478869438171, -3.9351420402526855], "name" : "TEXCOORD_0"}, {"bufferView" : 0, "byteOffset" : 4692, "componentType" : 5123, "count" : 2364, "type" : "SCALAR", "max" : [811], "min" : [0]}, {"bufferView" : 2, "byteOffset" : 0, "componentType" : 5126, "count" : 812, "type" : "VEC3", "max" : [12.3222017288208, -2.488368034362793, 0.10000000149011612], "min" : [0.7143750190734863, -12.611464500427246, 0.10000000149011612], "name" : "POSITION"}, {"bufferView" : 2, "byteOffset" : 12, "componentType" : 5126, "count" : 812, "type" : "VEC3", "max" : [0, 0, 1.0000044107437134], "min" : [0, 0, 1.0000044107437134], "name" : "NORMAL"}, {"bufferView" : 2, "byteOffset" : 24, "componentType" : 5126, "count" : 812, "type" : "VEC2", "max" : [5.521087169647217, 7.00944709777832], "min" : [-6.086739540100098, -3.1136488914489746], "name" : "TEXCOORD_0"}, {"bufferView" : 0, "byteOffset" : 9420, "componentType" : 5123, "count" : 20076, "type" : "SCALAR", "max" : [6547], "min" : [0]}, {"bufferView" : 3, "byteOffset" : 0, "componentType" : 5126, "count" : 6548, "type" : "VEC3", "max" : [13.17426586151123, -0.0006562906783074141, 0.11999999731779099], "min" : [0.37636980414390564, -13.222555160522461, 0.11999999731779099], "name" : "POSITION"}, {"bufferView" : 3, "byteOffset" : 12, "componentType" : 5126, "count" : 6548, "type" : "VEC3", "max" : [0, 0, 1.0000044107437134], "min" : [0, 0, 1.0000044107437134], "name" : "NORMAL"}, {"bufferView" : 3, "byteOffset" : 24, "componentType" : 5126, "count" : 6548, "type" : "VEC2", "max" : [6.373150825500488, 7.620537757873535], "min" : [-6.424744606018066, -5.60136079788208], "name" : "TEXCOORD_0"}, {"bufferView" : 0, "byteOffset" : 49572, "componentType" : 5123, "count" : 56982, "type" : "SCALAR", "max" : [13629], "min" : [0]}, {"bufferView" : 4, "byteOffset" : 0, "componentType" : 5126, "count" : 13630, "type" : "VEC3", "max" : [13.17426586151123, -0.0006562906783074141, 0.11999999731779099], "min" : [0.37636980414390564, -13.222555160522461, 0], "name" : "POSITION"}, {"bufferView" : 4, "byteOffset" : 12, "componentType" : 5126, "count" : 13630, "type" : "VEC3", "max" : [1.0000044107437134, 1.0000044107437134, 1.0000044107437134], "min" : [-1.0000044107437134, -1.0000044107437134, 0], "name" : "NORMAL"}, {"bufferView" : 4, "byteOffset" : 24, "componentType" : 5126, "count" : 13630, "type" : "VEC2", "max" : [3.6296260356903076, 4.690274715423584], "min" : [-0.624451220035553, 0.8799999952316284], "name" : "TEXCOORD_0"}], "asset" : {"generator" : "Aspose.3D 24.9.1", "version" : "2.0"}, "buffers" : [{"uri" : "data:application/octet-stream;base64,", "byteLength" : 861156}], "bufferViews" : [{"buffer" : 0, "byteOffset" : 0, "byteLength" : 163536, "target" : 34963}, {"buffer" : 0, "byteOffset" : 163540, "byteLength" : 25920, "byteStride" : 32, "target" : 34962}, {"buffer" : 0, "byteOffset" : 189464, "byteLength" : 25984, "byteStride" : 32, "target" : 34962}, {"buffer" : 0, "byteOffset" : 215452, "byteLength" : 209536, "byteStride" : 32, "target" : 34962}, {"buffer" : 0, "byteOffset" : 424992, "byteLength" : 436160, "byteStride" : 32, "target" : 34962}], "materials" : [{"name" : "F_1b3cfc9d47784ba48f274e6027e5474d", "pbrMetallicRoughness" : {"baseColorFactor" : [0.8713661432266235, 0.8713661432266235, 0.5394788980484009, 1], "metallicFactor" : 0, "roughnessFactor" : 0.2645750045776367}, "emissiveFactor" : [0, 0, 0], "alphaMode" : "OPAQUE", "doubleSided" : false}, {"name" : "F_5eb928f30ca443cc9b69a79fd49e94da", "pbrMetallicRoughness" : {"baseColorFactor" : [0.1195383071899414, 0.40197819471359253, 0.1441282480955124, 1], "metallicFactor" : 0, "roughnessFactor" : 0.2645750045776367}, "emissiveFactor" : [0, 0, 0], "alphaMode" : "OPAQUE", "doubleSided" : false}, {"name" : "F_500dd708ed1349eb937c7da7383274d5", "pbrMetallicRoughness" : {"baseColorFactor" : [0, 0, 0, 1], "metallicFactor" : 0, "roughnessFactor" : 0.2645750045776367}, "emissiveFactor" : [0, 0, 0], "alphaMode" : "OPAQUE", "doubleSided" : false}, {"name" : "F_581df3fe069349e6b621993211cb825e", "pbrMetallicRoughness" : {"baseColorFactor" : [0.9199994206428528, 0.9199994206428528, 0.8999993801116943, 1], "metallicFactor" : 0, "roughnessFactor" : 0.2645750045776367}, "emissiveFactor" : [0, 0, 0], "alphaMode" : "OPAQUE", "doubleSided" : false}], "meshes" : [{"primitives" : [{"attributes" : {"POSITION" : 1, "NORMAL" : 2, "TEXCOORD_0" : 3}, "indices" : 0, "material" : 0, "mode" : 4}, {"attributes" : {"POSITION" : 5, "NORMAL" : 6, "TEXCOORD_0" : 7}, "indices" : 4, "material" : 1, "mode" : 4}, {"attributes" : {"POSITION" : 9, "NORMAL" : 10, "TEXCOORD_0" : 11}, "indices" : 8, "material" : 2, "mode" : 4}, {"attributes" : {"POSITION" : 13, "NORMAL" : 14, "TEXCOORD_0" : 15}, "indices" : 12, "material" : 3, "mode" : 4}], "name" : "?????????8"}], "nodes" : [{"matrix" : [10, 0, 0, 0, 0, 10, 0, 0, 0, 0, 10, 0, 0, 0, 0, 1], "mesh" : 0, "name" : "?????????8"}, {"children" : [0], "name" : "sousin"}], "scene" : 0, "scenes" : [{"nodes" : [1]}]}